<?xml version="1.0" encoding="utf-8"?><svg version="1.1" id="Layer_1" xmlns="http://www.w3.org/2000/svg" xmlns:xlink="http://www.w3.org/1999/xlink" x="0px" y="0px" viewBox="0 0 97.92 122.88" style="enable-background:new 0 0 97.92 122.88" xml:space="preserve"><g><path d="M68.17,0.66C67.73,0.26,67.11,0,66.5,0c-0.13,0-0.26,0-0.4,0.04H5.54c-1.49,0-2.9,0.62-3.91,1.63C0.62,2.68,0,4.04,0,5.58 v111.76c0,1.54,0.62,2.9,1.63,3.91c1.01,1.01,2.37,1.63,3.91,1.63c28.22,0,58.68,0,86.76,0c1.54,0,2.9-0.62,3.91-1.63 c1.01-1.01,1.63-2.37,1.63-3.91V32.3c0.04-0.22,0.09-0.4,0.09-0.62c0-0.75-0.35-1.41-0.84-1.89L68.47,0.84 c-0.09-0.09-0.13-0.13-0.22-0.18H68.17L68.17,0.66z M20.53,19.68c-1.36,0-2.5,1.1-2.5,2.51c0,1.36,1.1,2.5,2.5,2.5h17.15 c1.36,0,2.51-1.1,2.51-2.5c0-1.36-1.1-2.51-2.51-2.51H20.53L20.53,19.68z M39.13,83.35h-8.88v-1.47c0-1.57-0.11-2.59-0.31-3.07 c-0.2-0.49-0.64-0.73-1.31-0.73c-0.54,0-0.95,0.21-1.22,0.62C27.14,79.13,27,79.75,27,80.59c0,1.39,0.28,2.37,0.83,2.92 c0.54,0.56,2.14,1.64,4.79,3.25c2.25,1.37,3.79,2.41,4.61,3.13c0.82,0.73,1.51,1.75,2.07,3.08c0.56,1.33,0.85,2.98,0.85,4.96 c0,3.16-0.76,5.65-2.28,7.45c-1.52,1.8-3.82,2.91-6.86,3.34v3.33h-4.1v-3.42c-2.37-0.23-4.45-1.15-6.22-2.74 c-1.77-1.58-2.66-4.36-2.66-8.32v-1.74h8.88v2.17c0,2.39,0.09,3.87,0.28,4.45c0.18,0.58,0.62,0.86,1.32,0.86 c0.6,0,1.05-0.2,1.34-0.6c0.29-0.41,0.44-1.01,0.44-1.8c0-1.99-0.14-3.42-0.42-4.27c-0.28-0.86-1.22-1.8-2.85-2.8 c-2.71-1.7-4.55-2.95-5.53-3.75c-0.97-0.8-1.82-1.92-2.52-3.38c-0.71-1.45-1.07-3.09-1.07-4.92c0-2.65,0.75-4.73,2.25-6.24 c1.5-1.51,3.76-2.44,6.76-2.79v-2.84h4.1v2.84c2.74,0.35,4.79,1.27,6.16,2.76c1.36,1.49,2.04,3.55,2.04,6.17 C39.22,82.05,39.19,82.61,39.13,83.35L39.13,83.35z M63.99,5.01v21.67c0,2.07,0.84,3.96,2.2,5.32c1.36,1.36,3.25,2.2,5.32,2.2 h21.27v83.15c0,0.13-0.04,0.31-0.18,0.4c-0.09,0.09-0.22,0.18-0.4,0.18c-22.34,0-64.98,0-86.71,0c-0.13,0-0.31-0.04-0.4-0.18 c-0.09-0.09-0.18-0.26-0.18-0.4V5.58c0-0.18,0.04-0.31,0.18-0.4c0.09-0.09,0.22-0.18,0.4-0.18h58.45H63.99L63.99,5.01z M68.96,26.68V8.53l20.44,20.7H71.51c-0.7,0-1.32-0.31-1.8-0.75C69.26,28.04,68.96,27.38,68.96,26.68L68.96,26.68z M20.52,36.96 c-1.36,0-2.5,1.1-2.5,2.51c0,1.36,1.1,2.51,2.5,2.51h43.86c1.36,0,2.51-1.1,2.51-2.51c0-1.36-1.1-2.51-2.51-2.51H20.52L20.52,36.96 z M49,70.36c-1.36,0-2.5,1.1-2.5,2.51c0,1.36,1.1,2.51,2.5,2.51h28.22c1.36,0,2.51-1.1,2.51-2.51c0-1.36-1.1-2.51-2.51-2.51H49 L49,70.36z M20.52,53.66c-1.36,0-2.5,1.1-2.5,2.51c0,1.36,1.1,2.51,2.5,2.51h56.69c1.36,0,2.51-1.1,2.51-2.51 c0-1.36-1.1-2.51-2.51-2.51H20.52L20.52,53.66z"/></g></svg>