<svg width="69" height="40" viewBox="0 0 69 40" fill="none" xmlns="http://www.w3.org/2000/svg">
<path d="M9.53215 4.69144C9.53215 7.28243 7.43177 9.38281 4.84078 9.38281C2.2498 9.38281 0.149414 7.28243 0.149414 4.69144C0.149414 2.10045 2.2498 7.05719e-05 4.84078 7.05719e-05C7.43177 7.05719e-05 9.53215 2.10045 9.53215 4.69144Z" fill="#00A0FF"/>
<path d="M21.2031 4.69144C21.2031 7.28243 19.1027 9.38281 16.5117 9.38281C13.9207 9.38281 11.8203 7.28243 11.8203 4.69144C11.8203 2.10045 13.9207 7.05719e-05 16.5117 7.05719e-05C19.1027 7.05719e-05 21.2031 2.10045 21.2031 4.69144Z" fill="#00B4FF"/>
<path d="M32.8749 4.69144C32.8749 7.28243 30.7745 9.38281 28.1836 9.38281C25.5926 9.38281 23.4922 7.28243 23.4922 4.69144C23.4922 2.10045 25.5926 7.05719e-05 28.1836 7.05719e-05C30.7745 7.05719e-05 32.8749 2.10045 32.8749 4.69144Z" fill="#00C8FF"/>
<path d="M21.2031 16.5357C21.2031 19.1267 19.1027 21.2271 16.5117 21.2271C13.9207 21.2271 11.8203 19.1267 11.8203 16.5357C11.8203 13.9447 13.9207 11.8443 16.5117 11.8443C19.1027 11.8443 21.2031 13.9447 21.2031 16.5357Z" fill="#00B4FF"/>
<path d="M56.3915 4.69144C56.3915 7.28243 54.2912 9.38281 51.7002 9.38281C49.1092 9.38281 47.0088 7.28243 47.0088 4.69144C47.0088 2.10045 49.1092 7.05719e-05 51.7002 7.05719e-05C54.2912 7.05719e-05 56.3915 2.10045 56.3915 4.69144Z" fill="#00F0FF"/>
<path d="M68.0634 4.69144C68.0634 7.28243 65.963 9.38281 63.372 9.38281C60.781 9.38281 58.6807 7.28243 58.6807 4.69144C58.6807 2.10045 60.781 7.05719e-05 63.372 7.05719e-05C65.963 7.05719e-05 68.0634 2.10045 68.0634 4.69144Z" fill="#00FFFF"/>
<path d="M44.7206 16.5357C44.7206 19.1267 42.6202 21.2271 40.0292 21.2271C37.4383 21.2271 35.3379 19.1267 35.3379 16.5357C35.3379 13.9447 37.4383 11.8443 40.0292 11.8443C42.6202 11.8443 44.7206 13.9447 44.7206 16.5357Z" fill="#00DCFF"/>
<path d="M56.3915 16.5357C56.3915 19.1267 54.2912 21.2271 51.7002 21.2271C49.1092 21.2271 47.0088 19.1267 47.0088 16.5357C47.0088 13.9447 49.1092 11.8443 51.7002 11.8443C54.2912 11.8443 56.3915 13.9447 56.3915 16.5357Z" fill="#00F0FF"/>
<path d="M3.79057 27.7596V33.936H2.55736V27.7596H0.341797V26.6309H6.00614V27.7596H3.79057Z" fill="white"/>
<path d="M18.5787 33.936H17.3246V31.0516L14.6074 26.6309H15.9555L17.9516 29.9542L19.9478 26.6309H21.2959L18.5787 31.0516V33.936Z" fill="white"/>
<path d="M33.9203 32.8177C34.3451 32.8177 34.711 32.7463 35.0177 32.6034C35.3242 32.4607 35.6447 32.2324 35.9791 31.9189L36.7734 32.734C36 33.5911 35.0611 34.0195 33.9569 34.0195C32.8526 34.0195 31.9363 33.6642 31.2083 32.9536C30.4802 32.2429 30.1162 31.3441 30.1162 30.2573C30.1162 29.1704 30.4872 28.2647 31.2293 27.54C31.9713 26.8156 32.9082 26.4531 34.0405 26.4531C35.1727 26.4531 36.1185 26.8712 36.8779 27.7073L36.0942 28.5642C35.7456 28.2298 35.4164 27.9965 35.1065 27.864C34.7964 27.7318 34.4325 27.6654 34.0143 27.6654C33.2758 27.6654 32.6558 27.9042 32.1542 28.3813C31.6525 28.8586 31.4017 29.4682 31.4017 30.2103C31.4017 30.9523 31.6506 31.5724 32.1489 32.0704C32.647 32.5686 33.2375 32.8177 33.9203 32.8177Z" fill="white"/>
<path d="M46.6387 33.936V26.6309H47.8719V29.7975H51.4983V26.6309H52.7315V33.936H51.4983V30.9471H47.8719V33.936H46.6387Z" fill="white"/>
<path d="M68.2504 26.6309V27.791H64.3523V29.7245H67.8534V30.8217H64.3523V32.776H68.3759V33.936H63.1191V26.6309H68.2504Z" fill="white"/>
<path d="M1.48139 37.3809C1.33509 37.3809 1.21521 37.4107 1.12148 37.4703C1.02784 37.5299 0.980922 37.62 0.980922 37.7408C0.980922 37.8615 1.02784 37.9536 1.12148 38.0175C1.21521 38.0814 1.41465 38.1503 1.71989 38.2241C2.02503 38.2979 2.25502 38.4016 2.40984 38.535C2.56456 38.6685 2.64193 38.8651 2.64193 39.1249C2.64193 39.3847 2.54398 39.5955 2.34808 39.7573C2.15218 39.9192 1.8952 40 1.57723 40C1.11152 40 0.698375 39.8397 0.337891 39.5188L0.652991 39.1397C0.953921 39.4011 1.26625 39.5316 1.58996 39.5316C1.75187 39.5316 1.88027 39.4969 1.97544 39.4272C2.07051 39.3576 2.1181 39.2654 2.1181 39.1503C2.1181 39.0355 2.07339 38.946 1.98396 38.8822C1.89444 38.8183 1.74048 38.76 1.52179 38.7074C1.3032 38.6551 1.13708 38.6068 1.02353 38.5628C0.909974 38.5187 0.809153 38.4612 0.721162 38.3902C0.545085 38.2567 0.457095 38.0523 0.457095 37.777C0.457095 37.5016 0.557149 37.2892 0.757355 37.1402C0.95756 36.9912 1.20526 36.9166 1.50054 36.9166C1.69078 36.9166 1.8796 36.9479 2.06697 37.0103C2.25435 37.0728 2.41625 37.1608 2.5525 37.2744L2.28422 37.6535C2.19613 37.574 2.07693 37.5086 1.92642 37.4576C1.7759 37.4064 1.62759 37.3809 1.48139 37.3809Z" fill="white"/>
<path d="M10.4974 37.6916C10.2943 37.4815 10.0452 37.3764 9.74989 37.3764C9.45461 37.3764 9.20547 37.4815 9.00249 37.6916C8.79951 37.9016 8.69802 38.1564 8.69802 38.456C8.69802 38.7556 8.79951 39.0104 9.00249 39.2205C9.20547 39.4306 9.45461 39.5357 9.74989 39.5357C10.0452 39.5357 10.2943 39.4306 10.4974 39.2205C10.7004 39.0104 10.8019 38.7556 10.8019 38.456C10.8019 38.1564 10.7004 37.9016 10.4974 37.6916ZM10.8658 39.5549C10.5648 39.8486 10.1928 39.9956 9.74989 39.9956C9.30697 39.9956 8.93499 39.8486 8.63416 39.5549C8.33313 39.261 8.18262 38.8946 8.18262 38.456C8.18262 38.0173 8.33313 37.6511 8.63416 37.3572C8.93499 37.0633 9.30697 36.9164 9.74989 36.9164C10.1928 36.9164 10.5648 37.0633 10.8658 37.3572C11.1667 37.6511 11.3173 38.0173 11.3173 38.456C11.3173 38.8946 11.1667 39.261 10.8658 39.5549Z" fill="white"/>
<path d="M17.5651 37.4574V38.275H18.8854V38.7393H17.5651V39.9658H17.0625V36.9888H19.0471L19.0429 37.4574H17.5651Z" fill="white"/>
<path d="M25.8703 37.4487V39.9658H25.3677V37.4487H24.4648V36.9888H26.7732V37.4487H25.8703Z" fill="white"/>
<path d="M33.3569 39.131L34.0213 36.9888H34.4727L35.1371 39.131L35.8867 36.9888H36.4276L35.3883 39.9658H34.8901L34.2641 37.9258H34.23L33.6039 39.9658H33.1055L32.0664 36.9888H32.6073L33.3569 39.131Z" fill="white"/>
<path d="M43.5701 38.8244L43.0293 37.5978L42.4883 38.8244H43.5701ZM42.2839 39.2887L41.9858 39.9658H41.4492L42.7609 36.9888H43.2975L44.6093 39.9658H44.0727L43.7746 39.2887H42.2839Z" fill="white"/>
<path d="M51.8406 38.3772C51.9429 38.2892 51.994 38.1479 51.994 37.9534C51.994 37.759 51.9415 37.6255 51.8364 37.5531C51.7313 37.4807 51.5439 37.4445 51.2742 37.4445H50.6354V38.5092H51.2615C51.5454 38.5092 51.7385 38.4653 51.8406 38.3772ZM52.5093 37.9556C52.5093 38.4469 52.2949 38.7563 51.8663 38.8841L52.6456 39.9658H52.0068L51.2956 38.965H50.6354V39.9658H50.1328V36.9888H51.2402C51.6944 36.9888 52.0196 37.0655 52.2155 37.2188C52.4114 37.3721 52.5093 37.6176 52.5093 37.9556Z" fill="white"/>
<path d="M60.4359 36.9888V37.4615H58.8473V38.2495H60.2741V38.6966H58.8473V39.493H60.487V39.9658H58.3447V36.9888H60.4359Z" fill="white"/>
<path d="M67.1416 37.3809C66.9953 37.3809 66.8754 37.4107 66.7816 37.4703C66.688 37.5299 66.6411 37.62 66.6411 37.7408C66.6411 37.8615 66.688 37.9536 66.7816 38.0175C66.8754 38.0814 67.0748 38.1503 67.3801 38.2241C67.6853 38.2979 67.9152 38.4016 68.07 38.535C68.2247 38.6685 68.3021 38.8651 68.3021 39.1249C68.3021 39.3847 68.2042 39.5955 68.0083 39.7573C67.8124 39.9192 67.5553 40 67.2374 40C66.7717 40 66.3585 39.8397 65.998 39.5188L66.3132 39.1397C66.6141 39.4011 66.9265 39.5316 67.2501 39.5316C67.4119 39.5316 67.5404 39.4969 67.6356 39.4272C67.7307 39.3576 67.7783 39.2654 67.7783 39.1503C67.7783 39.0355 67.7336 38.946 67.6441 38.8822C67.5546 38.8183 67.4006 38.76 67.1821 38.7074C66.9634 38.6551 66.7972 38.6068 66.6837 38.5628C66.57 38.5187 66.4693 38.4612 66.3813 38.3902C66.2052 38.2567 66.1173 38.0523 66.1173 37.777C66.1173 37.5016 66.2174 37.2892 66.4175 37.1402C66.6176 36.9912 66.8653 36.9166 67.1607 36.9166C67.351 36.9166 67.5398 36.9479 67.7271 37.0103C67.9145 37.0728 68.0764 37.1608 68.2128 37.2744L67.9444 37.6535C67.8563 37.574 67.7371 37.5086 67.5866 37.4576C67.4361 37.4064 67.2878 37.3809 67.1416 37.3809Z" fill="white"/>
</svg>
